# xmcd
#
# Track frame offsets:
#	150
#	8950
#	30905
#	57642
#	73347
#	91740
#	111707
#	128360
#	150055
#	170210
#	203530
#	226160
#	248310
#
# Disc length: 3667 seconds
#
# Revision: 1
# Processed by: cddbd v1.5PL3 Copyright (c) Steve Scherf et al.
# Submitted via: CDex 1.50Beta5
#
DISCID=9a0e510d
DTITLE=五木ひろし - 御園座公演ライブ ’02 歌・舞・奏 Disc 2
DYEAR=2002
DGENRE=country
TTITLE0=オープニング 日本海のきらめき
TTITLE1=渚の女
TTITLE2=紫陽花
TTITLE3=おまえとふたり
TTITLE4=汽笛
TTITLE5=蝉時雨
TTITLE6=暖簾
TTITLE7=女の酒場
TTITLE8=追憶
TTITLE9=逢いたかったぜ
TTITLE10=二行半の恋文
TTITLE11=傘ん中
TTITLE12=山河
EXTD=
EXTT0=
EXTT1=
EXTT2=
EXTT3=
EXTT4=
EXTT5=
EXTT6=
EXTT7=
EXTT8=
EXTT9=
EXTT10=
EXTT11=
EXTT12=
PLAYORDER=
